<svg width="657" height="32" viewBox="0 0 657 32" fill="none" xmlns="http://www.w3.org/2000/svg">
<path d="M319.376 10.8V15.424H313.584V10.8H311.504V22H313.584V17.2H319.376V22H321.456V10.8H319.376ZM328.105 22.112C330.761 22.112 332.665 20.288 332.665 17.728C332.665 15.168 330.761 13.36 328.105 13.36C325.481 13.36 323.561 15.168 323.561 17.728C323.561 20.288 325.481 22.112 328.105 22.112ZM328.105 20.4C326.665 20.4 325.577 19.36 325.577 17.728C325.577 16.096 326.665 15.056 328.105 15.056C329.561 15.056 330.649 16.096 330.649 17.728C330.649 19.36 329.561 20.4 328.105 20.4ZM345.895 13.456L343.575 19.792L341.271 13.456H339.591L337.239 19.76L334.983 13.456H333.095L336.231 22H338.151L340.391 16.112L342.599 22H344.519L347.671 13.456H345.895ZM358.044 20.112C357.74 20.352 357.34 20.464 356.924 20.464C356.156 20.464 355.74 20.016 355.74 19.184V15.12H358.028V13.52H355.74V11.568H353.74V13.52H352.332V15.12H353.74V19.232C353.74 21.12 354.812 22.112 356.684 22.112C357.404 22.112 358.124 21.92 358.604 21.536L358.044 20.112ZM363.808 22.112C366.464 22.112 368.368 20.288 368.368 17.728C368.368 15.168 366.464 13.36 363.808 13.36C361.184 13.36 359.264 15.168 359.264 17.728C359.264 20.288 361.184 22.112 363.808 22.112ZM363.808 20.4C362.368 20.4 361.28 19.36 361.28 17.728C361.28 16.096 362.368 15.056 363.808 15.056C365.264 15.056 366.352 16.096 366.352 17.728C366.352 19.36 365.264 20.4 363.808 20.4ZM379.439 13.36C378.351 13.36 377.391 13.728 376.703 14.496V10.128H374.703V22H376.607V20.896C377.279 21.712 378.271 22.112 379.439 22.112C381.935 22.112 383.775 20.384 383.775 17.728C383.775 15.072 381.935 13.36 379.439 13.36ZM379.215 20.4C377.775 20.4 376.671 19.36 376.671 17.728C376.671 16.096 377.775 15.056 379.215 15.056C380.655 15.056 381.743 16.096 381.743 17.728C381.743 19.36 380.655 20.4 379.215 20.4ZM393.703 17.776C393.703 15.104 391.879 13.36 389.383 13.36C386.839 13.36 384.967 15.184 384.967 17.728C384.967 20.272 386.823 22.112 389.687 22.112C391.159 22.112 392.359 21.632 393.127 20.72L392.055 19.488C391.447 20.112 390.695 20.416 389.735 20.416C388.247 20.416 387.207 19.616 386.967 18.368H393.671C393.687 18.176 393.703 17.936 393.703 17.776ZM389.383 14.96C390.695 14.96 391.639 15.808 391.799 17.04H386.951C387.143 15.792 388.087 14.96 389.383 14.96ZM399.545 22.112C401.209 22.112 402.536 21.392 403.193 20.112L401.657 19.216C401.145 20.032 400.377 20.4 399.529 20.4C398.057 20.4 396.937 19.392 396.937 17.728C396.937 16.08 398.057 15.056 399.529 15.056C400.377 15.056 401.145 15.424 401.657 16.24L403.193 15.344C402.536 14.048 401.209 13.36 399.545 13.36C396.841 13.36 394.921 15.168 394.921 17.728C394.921 20.288 396.841 22.112 399.545 22.112ZM408.636 22.112C411.292 22.112 413.196 20.288 413.196 17.728C413.196 15.168 411.292 13.36 408.636 13.36C406.012 13.36 404.092 15.168 404.092 17.728C404.092 20.288 406.012 22.112 408.636 22.112ZM408.636 20.4C407.196 20.4 406.108 19.36 406.108 17.728C406.108 16.096 407.196 15.056 408.636 15.056C410.092 15.056 411.18 16.096 411.18 17.728C411.18 19.36 410.092 20.4 408.636 20.4ZM425.893 13.36C424.533 13.36 423.381 13.904 422.693 14.784C422.101 13.824 421.061 13.36 419.813 13.36C418.645 13.36 417.653 13.776 417.013 14.544V13.456H415.109V22H417.109V17.664C417.109 15.968 418.005 15.104 419.333 15.104C420.549 15.104 421.253 15.84 421.253 17.36V22H423.253V17.664C423.253 15.968 424.165 15.104 425.477 15.104C426.693 15.104 427.397 15.84 427.397 17.36V22H429.397V17.104C429.397 14.528 427.957 13.36 425.893 13.36ZM440.063 17.776C440.063 15.104 438.239 13.36 435.743 13.36C433.199 13.36 431.327 15.184 431.327 17.728C431.327 20.272 433.183 22.112 436.047 22.112C437.519 22.112 438.719 21.632 439.487 20.72L438.415 19.488C437.807 20.112 437.055 20.416 436.095 20.416C434.607 20.416 433.567 19.616 433.327 18.368H440.031C440.047 18.176 440.063 17.936 440.063 17.776ZM435.743 14.96C437.055 14.96 437.999 15.808 438.159 17.04H433.311C433.503 15.792 434.447 14.96 435.743 14.96ZM449.67 13.36C448.294 13.36 446.966 13.712 446.054 14.416L446.838 15.872C447.478 15.344 448.47 15.024 449.43 15.024C450.854 15.024 451.558 15.712 451.558 16.88V17.008H449.35C446.758 17.008 445.798 18.128 445.798 19.552C445.798 21.04 447.03 22.112 448.982 22.112C450.262 22.112 451.19 21.696 451.67 20.96V22H453.558V16.992C453.558 14.528 452.134 13.36 449.67 13.36ZM449.398 20.656C448.374 20.656 447.766 20.192 447.766 19.472C447.766 18.848 448.134 18.336 449.494 18.336H451.558V19.328C451.222 20.208 450.374 20.656 449.398 20.656ZM460.973 13.36C459.725 13.36 458.685 13.776 458.029 14.56V13.456H456.125V22H458.125V17.68C458.125 15.968 459.085 15.104 460.509 15.104C461.789 15.104 462.541 15.84 462.541 17.36V22H464.541V17.104C464.541 14.528 463.021 13.36 460.973 13.36ZM473.772 20.256V17.168H479.18V15.456H473.772V12.544H479.868V10.8H471.692V22H480.092V20.256H473.772ZM489.758 22L486.414 17.632L489.614 13.456H487.454L485.358 16.256L483.262 13.456H481.038L484.222 17.664L480.894 22H483.102L485.31 19.04L487.502 22H489.758ZM495.97 13.36C494.802 13.36 493.81 13.76 493.138 14.576V13.456H491.234V25.104H493.234V20.96C493.922 21.744 494.882 22.112 495.97 22.112C498.466 22.112 500.306 20.384 500.306 17.728C500.306 15.088 498.466 13.36 495.97 13.36ZM495.746 20.4C494.306 20.4 493.202 19.36 493.202 17.728C493.202 16.096 494.306 15.056 495.746 15.056C497.186 15.056 498.274 16.096 498.274 17.728C498.274 19.36 497.186 20.4 495.746 20.4ZM510.235 17.776C510.235 15.104 508.411 13.36 505.915 13.36C503.371 13.36 501.499 15.184 501.499 17.728C501.499 20.272 503.355 22.112 506.219 22.112C507.691 22.112 508.891 21.632 509.659 20.72L508.587 19.488C507.979 20.112 507.227 20.416 506.267 20.416C504.779 20.416 503.739 19.616 503.499 18.368H510.203C510.219 18.176 510.235 17.936 510.235 17.776ZM505.915 14.96C507.227 14.96 508.171 15.808 508.331 17.04H503.483C503.675 15.792 504.619 14.96 505.915 14.96ZM514.06 14.704V13.456H512.156V22H514.156V17.856C514.156 16.112 515.116 15.216 516.636 15.216C516.78 15.216 516.924 15.232 517.1 15.264V13.36C515.676 13.36 514.636 13.808 514.06 14.704ZM523.685 20.112C523.381 20.352 522.981 20.464 522.565 20.464C521.797 20.464 521.381 20.016 521.381 19.184V15.12H523.669V13.52H521.381V11.568H519.381V13.52H517.973V15.12H519.381V19.232C519.381 21.12 520.453 22.112 522.325 22.112C523.045 22.112 523.765 21.92 524.245 21.536L523.685 20.112ZM544.888 10.8L542.024 19.36L539.192 10.8H537.272L534.376 19.312L531.592 10.8H529.432L533.144 22H535.368L538.184 13.712L540.952 22H543.16L546.872 10.8H544.888ZM555.766 17.776C555.766 15.104 553.942 13.36 551.446 13.36C548.902 13.36 547.03 15.184 547.03 17.728C547.03 20.272 548.886 22.112 551.75 22.112C553.222 22.112 554.422 21.632 555.19 20.72L554.118 19.488C553.51 20.112 552.758 20.416 551.798 20.416C550.31 20.416 549.27 19.616 549.03 18.368H555.734C555.75 18.176 555.766 17.936 555.766 17.776ZM551.446 14.96C552.758 14.96 553.702 15.808 553.862 17.04H549.014C549.206 15.792 550.15 14.96 551.446 14.96ZM562.423 13.36C561.335 13.36 560.375 13.728 559.687 14.496V10.128H557.687V22H559.591V20.896C560.263 21.712 561.255 22.112 562.423 22.112C564.919 22.112 566.759 20.384 566.759 17.728C566.759 15.072 564.919 13.36 562.423 13.36ZM562.199 20.4C560.759 20.4 559.655 19.36 559.655 17.728C559.655 16.096 560.759 15.056 562.199 15.056C563.639 15.056 564.727 16.096 564.727 17.728C564.727 19.36 563.639 20.4 562.199 20.4ZM573.27 22H578.166C581.798 22 584.278 19.76 584.278 16.4C584.278 13.04 581.798 10.8 578.166 10.8H573.27V22ZM575.35 20.24V12.56H578.07C580.566 12.56 582.182 14.08 582.182 16.4C582.182 18.72 580.566 20.24 578.07 20.24H575.35ZM594.328 17.776C594.328 15.104 592.504 13.36 590.008 13.36C587.464 13.36 585.592 15.184 585.592 17.728C585.592 20.272 587.448 22.112 590.312 22.112C591.784 22.112 592.984 21.632 593.752 20.72L592.68 19.488C592.072 20.112 591.32 20.416 590.36 20.416C588.872 20.416 587.832 19.616 587.592 18.368H594.296C594.312 18.176 594.328 17.936 594.328 17.776ZM590.008 14.96C591.32 14.96 592.264 15.808 592.424 17.04H587.576C587.768 15.792 588.712 14.96 590.008 14.96ZM602.173 13.456L599.437 19.792L596.781 13.456H594.701L598.365 22H600.429L604.093 13.456H602.173ZM613.141 17.776C613.141 15.104 611.317 13.36 608.821 13.36C606.277 13.36 604.405 15.184 604.405 17.728C604.405 20.272 606.261 22.112 609.125 22.112C610.597 22.112 611.797 21.632 612.565 20.72L611.493 19.488C610.885 20.112 610.133 20.416 609.173 20.416C607.685 20.416 606.645 19.616 606.405 18.368H613.109C613.125 18.176 613.141 17.936 613.141 17.776ZM608.821 14.96C610.133 14.96 611.077 15.808 611.237 17.04H606.389C606.581 15.792 607.525 14.96 608.821 14.96ZM615.062 22H617.062V10.128H615.062V22ZM623.527 22.112C626.183 22.112 628.087 20.288 628.087 17.728C628.087 15.168 626.183 13.36 623.527 13.36C620.903 13.36 618.983 15.168 618.983 17.728C618.983 20.288 620.903 22.112 623.527 22.112ZM623.527 20.4C622.087 20.4 620.999 19.36 620.999 17.728C620.999 16.096 622.087 15.056 623.527 15.056C624.983 15.056 626.071 16.096 626.071 17.728C626.071 19.36 624.983 20.4 623.527 20.4ZM634.736 13.36C633.568 13.36 632.576 13.76 631.904 14.576V13.456H630V25.104H632V20.96C632.688 21.744 633.648 22.112 634.736 22.112C637.232 22.112 639.072 20.384 639.072 17.728C639.072 15.088 637.232 13.36 634.736 13.36ZM634.512 20.4C633.072 20.4 631.968 19.36 631.968 17.728C631.968 16.096 633.072 15.056 634.512 15.056C635.952 15.056 637.04 16.096 637.04 17.728C637.04 19.36 635.952 20.4 634.512 20.4ZM649 17.776C649 15.104 647.176 13.36 644.68 13.36C642.136 13.36 640.264 15.184 640.264 17.728C640.264 20.272 642.12 22.112 644.984 22.112C646.456 22.112 647.656 21.632 648.424 20.72L647.352 19.488C646.744 20.112 645.992 20.416 645.032 20.416C643.544 20.416 642.504 19.616 642.264 18.368H648.968C648.984 18.176 649 17.936 649 17.776ZM644.68 14.96C645.992 14.96 646.936 15.808 647.096 17.04H642.248C642.44 15.792 643.384 14.96 644.68 14.96ZM652.825 14.704V13.456H650.921V22H652.921V17.856C652.921 16.112 653.881 15.216 655.401 15.216C655.545 15.216 655.689 15.232 655.865 15.264V13.36C654.441 13.36 653.401 13.808 652.825 14.704Z" fill="white"/>
<path d="M282.862 11.138L287.724 16L282.862 20.862L283.805 21.8046L289.609 16L283.805 10.1953L282.862 11.138Z" fill="white"/>
<path d="M89.112 10.8H84.504V22H86.584V18.768H89.112C92.056 18.768 93.88 17.248 93.88 14.784C93.88 12.304 92.056 10.8 89.112 10.8ZM89.016 17.008H86.584V12.56H89.016C90.84 12.56 91.784 13.376 91.784 14.784C91.784 16.192 90.84 17.008 89.016 17.008ZM97.591 14.704V13.456H95.687V22H97.687V17.856C97.687 16.112 98.647 15.216 100.167 15.216C100.311 15.216 100.455 15.232 100.631 15.264V13.36C99.207 13.36 98.167 13.808 97.591 14.704ZM106.09 22.112C108.746 22.112 110.65 20.288 110.65 17.728C110.65 15.168 108.746 13.36 106.09 13.36C103.466 13.36 101.546 15.168 101.546 17.728C101.546 20.288 103.466 22.112 106.09 22.112ZM106.09 20.4C104.65 20.4 103.562 19.36 103.562 17.728C103.562 16.096 104.65 15.056 106.09 15.056C107.546 15.056 108.634 16.096 108.634 17.728C108.634 19.36 107.546 20.4 106.09 20.4ZM119.138 13.456V14.592C118.434 13.744 117.378 13.36 116.178 13.36C113.73 13.36 111.858 14.992 111.858 17.472C111.858 19.952 113.73 21.616 116.178 21.616C117.33 21.616 118.338 21.248 119.042 20.48V20.928C119.042 22.656 118.21 23.52 116.322 23.52C115.138 23.52 113.922 23.12 113.17 22.496L112.274 24C113.25 24.8 114.834 25.216 116.434 25.216C119.426 25.216 121.042 23.808 121.042 20.704V13.456H119.138ZM116.482 19.92C114.962 19.92 113.874 18.928 113.874 17.472C113.874 16.032 114.962 15.056 116.482 15.056C117.986 15.056 119.074 16.032 119.074 17.472C119.074 18.928 117.986 19.92 116.482 19.92ZM125.575 14.704V13.456H123.671V22H125.671V17.856C125.671 16.112 126.631 15.216 128.151 15.216C128.295 15.216 128.439 15.232 128.615 15.264V13.36C127.191 13.36 126.151 13.808 125.575 14.704ZM133.529 13.36C132.153 13.36 130.825 13.712 129.913 14.416L130.697 15.872C131.337 15.344 132.329 15.024 133.289 15.024C134.713 15.024 135.417 15.712 135.417 16.88V17.008H133.209C130.617 17.008 129.657 18.128 129.657 19.552C129.657 21.04 130.889 22.112 132.841 22.112C134.121 22.112 135.049 21.696 135.529 20.96V22H137.417V16.992C137.417 14.528 135.993 13.36 133.529 13.36ZM133.257 20.656C132.233 20.656 131.625 20.192 131.625 19.472C131.625 18.848 131.993 18.336 133.353 18.336H135.417V19.328C135.081 20.208 134.233 20.656 133.257 20.656ZM150.768 13.36C149.408 13.36 148.256 13.904 147.568 14.784C146.976 13.824 145.936 13.36 144.688 13.36C143.52 13.36 142.528 13.776 141.888 14.544V13.456H139.984V22H141.984V17.664C141.984 15.968 142.88 15.104 144.208 15.104C145.424 15.104 146.128 15.84 146.128 17.36V22H148.128V17.664C148.128 15.968 149.04 15.104 150.352 15.104C151.568 15.104 152.272 15.84 152.272 17.36V22H154.272V17.104C154.272 14.528 152.832 13.36 150.768 13.36ZM167.612 13.36C166.252 13.36 165.1 13.904 164.412 14.784C163.82 13.824 162.78 13.36 161.532 13.36C160.364 13.36 159.372 13.776 158.732 14.544V13.456H156.828V22H158.828V17.664C158.828 15.968 159.724 15.104 161.052 15.104C162.268 15.104 162.972 15.84 162.972 17.36V22H164.972V17.664C164.972 15.968 165.884 15.104 167.196 15.104C168.412 15.104 169.116 15.84 169.116 17.36V22H171.116V17.104C171.116 14.528 169.676 13.36 167.612 13.36ZM174.679 12.048C175.431 12.048 175.959 11.504 175.959 10.8C175.959 10.144 175.415 9.648 174.679 9.648C173.943 9.648 173.399 10.176 173.399 10.848C173.399 11.52 173.943 12.048 174.679 12.048ZM173.671 22H175.671V13.456H173.671V22ZM183.144 13.36C181.896 13.36 180.856 13.776 180.2 14.56V13.456H178.296V22H180.296V17.68C180.296 15.968 181.256 15.104 182.68 15.104C183.96 15.104 184.712 15.84 184.712 17.36V22H186.712V17.104C186.712 14.528 185.192 13.36 183.144 13.36ZM195.904 13.456V14.592C195.2 13.744 194.144 13.36 192.944 13.36C190.496 13.36 188.624 14.992 188.624 17.472C188.624 19.952 190.496 21.616 192.944 21.616C194.096 21.616 195.104 21.248 195.808 20.48V20.928C195.808 22.656 194.976 23.52 193.088 23.52C191.904 23.52 190.688 23.12 189.936 22.496L189.04 24C190.016 24.8 191.6 25.216 193.2 25.216C196.192 25.216 197.808 23.808 197.808 20.704V13.456H195.904ZM193.248 19.92C191.728 19.92 190.64 18.928 190.64 17.472C190.64 16.032 191.728 15.056 193.248 15.056C194.752 15.056 195.84 16.032 195.84 17.472C195.84 18.928 194.752 19.92 193.248 19.92ZM210.235 22.16C212.075 22.16 213.643 21.504 214.683 20.288L213.339 19.008C212.523 19.904 211.515 20.336 210.347 20.336C208.027 20.336 206.347 18.704 206.347 16.4C206.347 14.096 208.027 12.464 210.347 12.464C211.515 12.464 212.523 12.896 213.339 13.776L214.683 12.512C213.643 11.296 212.075 10.64 210.251 10.64C206.811 10.64 204.251 13.056 204.251 16.4C204.251 19.744 206.811 22.16 210.235 22.16ZM220.011 22.112C222.667 22.112 224.571 20.288 224.571 17.728C224.571 15.168 222.667 13.36 220.011 13.36C217.387 13.36 215.467 15.168 215.467 17.728C215.467 20.288 217.387 22.112 220.011 22.112ZM220.011 20.4C218.571 20.4 217.483 19.36 217.483 17.728C217.483 16.096 218.571 15.056 220.011 15.056C221.467 15.056 222.555 16.096 222.555 17.728C222.555 19.36 221.467 20.4 220.011 20.4ZM232.756 13.456V17.776C232.756 19.488 231.812 20.352 230.42 20.352C229.156 20.352 228.42 19.616 228.42 18.064V13.456H226.42V18.336C226.42 20.912 227.908 22.112 230.1 22.112C231.204 22.112 232.212 21.696 232.852 20.912V22H234.756V13.456H232.756ZM239.279 14.704V13.456H237.375V22H239.375V17.856C239.375 16.112 240.335 15.216 241.855 15.216C241.999 15.216 242.143 15.232 242.319 15.264V13.36C240.895 13.36 239.855 13.808 239.279 14.704ZM246.686 22.112C249.086 22.112 250.558 21.072 250.558 19.472C250.558 16.128 245.278 17.664 245.278 15.936C245.278 15.376 245.854 14.976 247.07 14.976C247.886 14.976 248.702 15.136 249.518 15.616L250.286 14.096C249.518 13.632 248.222 13.36 247.086 13.36C244.782 13.36 243.326 14.416 243.326 16.032C243.326 19.44 248.606 17.904 248.606 19.536C248.606 20.128 248.078 20.48 246.814 20.48C245.742 20.48 244.59 20.128 243.838 19.632L243.07 21.152C243.838 21.696 245.262 22.112 246.686 22.112ZM260.313 17.776C260.313 15.104 258.489 13.36 255.993 13.36C253.449 13.36 251.577 15.184 251.577 17.728C251.577 20.272 253.433 22.112 256.297 22.112C257.769 22.112 258.969 21.632 259.737 20.72L258.665 19.488C258.057 20.112 257.305 20.416 256.345 20.416C254.857 20.416 253.817 19.616 253.577 18.368H260.281C260.297 18.176 260.313 17.936 260.313 17.776ZM255.993 14.96C257.305 14.96 258.249 15.808 258.409 17.04H253.561C253.753 15.792 254.697 14.96 255.993 14.96ZM264.874 22.112C267.274 22.112 268.746 21.072 268.746 19.472C268.746 16.128 263.466 17.664 263.466 15.936C263.466 15.376 264.042 14.976 265.258 14.976C266.074 14.976 266.89 15.136 267.706 15.616L268.474 14.096C267.706 13.632 266.41 13.36 265.274 13.36C262.97 13.36 261.514 14.416 261.514 16.032C261.514 19.44 266.794 17.904 266.794 19.536C266.794 20.128 266.266 20.48 265.002 20.48C263.93 20.48 262.778 20.128 262.026 19.632L261.258 21.152C262.026 21.696 263.45 22.112 264.874 22.112Z" fill="#E6E6E6"/>
<path d="M63.862 11.138L68.724 16L63.862 20.862L64.8047 21.8046L70.6093 16L64.8047 10.1953L63.862 11.138Z" fill="#E6E6E6"/>
<path d="M9.376 10.8V15.424H3.584V10.8H1.504V22H3.584V17.2H9.376V22H11.456V10.8H9.376ZM18.1051 22.112C20.7611 22.112 22.6651 20.288 22.6651 17.728C22.6651 15.168 20.7611 13.36 18.1051 13.36C15.4811 13.36 13.5611 15.168 13.5611 17.728C13.5611 20.288 15.4811 22.112 18.1051 22.112ZM18.1051 20.4C16.6651 20.4 15.5771 19.36 15.5771 17.728C15.5771 16.096 16.6651 15.056 18.1051 15.056C19.5611 15.056 20.6491 16.096 20.6491 17.728C20.6491 19.36 19.5611 20.4 18.1051 20.4ZM35.3616 13.36C34.0016 13.36 32.8496 13.904 32.1616 14.784C31.5696 13.824 30.5296 13.36 29.2816 13.36C28.1136 13.36 27.1216 13.776 26.4816 14.544V13.456H24.5776V22H26.5776V17.664C26.5776 15.968 27.4736 15.104 28.8016 15.104C30.0176 15.104 30.7216 15.84 30.7216 17.36V22H32.7216V17.664C32.7216 15.968 33.6336 15.104 34.9456 15.104C36.1616 15.104 36.8656 15.84 36.8656 17.36V22H38.8656V17.104C38.8656 14.528 37.4256 13.36 35.3616 13.36ZM49.5315 17.776C49.5315 15.104 47.7075 13.36 45.2115 13.36C42.6675 13.36 40.7955 15.184 40.7955 17.728C40.7955 20.272 42.6515 22.112 45.5155 22.112C46.9875 22.112 48.1875 21.632 48.9555 20.72L47.8835 19.488C47.2755 20.112 46.5235 20.416 45.5635 20.416C44.0755 20.416 43.0355 19.616 42.7955 18.368H49.4995C49.5155 18.176 49.5315 17.936 49.5315 17.776ZM45.2115 14.96C46.5235 14.96 47.4675 15.808 47.6275 17.04H42.7795C42.9715 15.792 43.9155 14.96 45.2115 14.96Z" fill="#E6E6E6"/>
</svg>
